<?xml version="1.0" encoding="UTF-8"?> <!-- Generator: Adobe Illustrator 23.0.1, SVG Export Plug-In . SVG Version: 6.00 Build 0) --> <svg xmlns="http://www.w3.org/2000/svg" xmlns:xlink="http://www.w3.org/1999/xlink" id="Слой_1" x="0px" y="0px" viewBox="0 0 527.4 221" style="enable-background:new 0 0 527.4 221;" xml:space="preserve"> <style type="text/css"> .st0{fill:url(#SVGID_1_);} .st1{fill:url(#SVGID_2_);} .st2{fill:url(#SVGID_3_);} .st3{fill:url(#SVGID_4_);} .st4{fill:url(#SVGID_5_);} .st5{fill:url(#SVGID_6_);} .st6{fill:url(#SVGID_7_);} .st7{fill:none;} </style> <g> <g> <g> <path d="M235.3,200.6c-1,0-1.8-0.7-1.8-1.5V13.8c0-0.8,0.8-1.5,1.8-1.5c1,0,1.8,0.7,1.8,1.5v185.3 C237.1,199.9,236.3,200.6,235.3,200.6z"></path> </g> <g> <path d="M496.5,63.5h-1.4c-4.3,0-7.8,3.5-7.8,7.8v15.1c0,4.3,3.5,7.8,7.8,7.8h1.4c4.3,0,7.8-3.5,7.8-7.8V71.3 C504.2,67,500.7,63.5,496.5,63.5z M500.6,86.3c0,2.6-2.1,4.7-4.7,4.7h-0.4c-2.6,0-4.7-2.1-4.7-4.7V71.4c0-2.6,2.1-4.7,4.7-4.7 h0.4c2.6,0,4.7,2.1,4.7,4.7V86.3z"></path> <path d="M450.6,63.5h-1.4c-4.3,0-7.8,3.5-7.8,7.8v15.1c0,4.3,3.5,7.8,7.8,7.8h1.4c4.3,0,7.8-3.5,7.8-7.8V71.3 C458.4,67,454.9,63.5,450.6,63.5z M454.7,86.3c0,2.6-2.1,4.7-4.7,4.7h-0.4c-2.6,0-4.7-2.1-4.7-4.7V71.4c0-2.6,2.1-4.7,4.7-4.7 h0.4c2.6,0,4.7,2.1,4.7,4.7V86.3z"></path> <path d="M358.9,90.4h-10.2c-0.2,0-0.3-0.1-0.3-0.3V80c0-0.2,0.1-0.3,0.3-0.3h8.8c0.5,0,0.8-0.4,0.8-0.8v-1.7 c0-0.5-0.4-0.8-0.8-0.8h-8.8c-0.2,0-0.3-0.1-0.3-0.3v-8.5c0-0.2,0.1-0.3,0.3-0.3h9.9c0.5,0,0.8-0.4,0.8-0.8v-1.7 c0-0.5-0.4-0.8-0.8-0.8l-13,0c-0.5,0-0.8,0.4-0.8,0.8v28.2c0,0.5,0.4,0.8,0.8,0.8h13.3c0.5,0,0.8-0.4,0.8-0.8v-1.7 C359.8,90.8,359.4,90.4,358.9,90.4z"></path> <path d="M408.1,90.4h-9.7c-0.3,0-0.5-0.2-0.5-0.5v-9.7c0-0.3,0.2-0.5,0.5-0.5h8.3c0.6,0,1.1-0.5,1.1-1.1v-1.1 c0-0.6-0.5-1.1-1.1-1.1h-8.3c-0.3,0-0.5-0.2-0.5-0.5v-8.3c0-0.2,0.1-0.3,0.3-0.3h9.6c0.6,0,1.1-0.5,1.1-1.1v-1.4 c0-0.5-0.4-0.8-0.8-0.8l-13,0c-0.5,0-0.8,0.4-0.8,0.8v27.9c0,0.6,0.5,1.1,1.1,1.1h12.7c0.6,0,1.1-0.5,1.1-1.1v-1.1 C409.2,90.9,408.7,90.4,408.1,90.4z"></path> <path d="M433.3,83.1c0-2.9-1.3-4-2.1-4.6c-0.3-0.2-0.3-0.7,0-0.9c0.7-0.6,1.7-1.6,1.8-4.4c0-1,0-1.9,0-2.9 c-0.1-1.8-0.8-3.3-2.1-4.5c-1.4-1.3-3.1-1.8-5-1.9c-1.6,0-6.9,0-6.9,0c-0.5,0-0.8,0.4-0.8,0.8v28.2c0,0.5,0.4,0.8,0.8,0.8 c0,0,5,0,6.5,0c2,0,3.8-0.6,5.3-1.9c1.4-1.2,2.2-2.7,2.4-4.5C433.5,85.9,433.3,84.5,433.3,83.1z M422.1,67.3c1.4,0,2.8,0,4.2,0 c2.4,0,3.4,2.4,3.4,3.3c0,0.9,0,1.9,0,2.8c-0.1,1.4-1.1,2.5-2.4,2.9c-0.9,0.2-3.7,0.1-5,0.2c-0.2,0-0.3,0-0.3-0.2v-8.8 C421.8,67.3,421.9,67.3,422.1,67.3z M429.8,86.5c0,1.9-1.1,3.3-2.9,3.8c-0.4,0.1-0.7,0.1-1.1,0.1c-1.2,0-2.4,0-3.6,0 c-0.2,0-0.3-0.1-0.3-0.2v-2.4c0-1.7,0-3.9,0-5.6v-2.3c0-0.2,0.1-0.2,0.3-0.2c1.2,0,2.4,0,3.7,0c2.5,0,4,2.1,4,4 C429.8,84.6,429.8,85.5,429.8,86.5z"></path> <path d="M480.5,63.9h-13.1c-0.5,0-0.8,0.4-0.8,0.8v28.2c0,0.5,0.4,0.8,0.8,0.8h1.9c0.5,0,0.8-0.4,0.8-0.8V67.6 c0-0.2,0.1-0.3,0.3-0.3h10c0.5,0,0.8-0.4,0.8-0.8v-1.7C481.4,64.2,481,63.9,480.5,63.9z"></path> <path d="M336.8,91.3c0-0.5-0.3-0.9-1.2-0.9h-1c-0.2,0-0.3-0.1-0.3-0.3V64.7c0-0.5-0.4-0.8-0.8-0.8h-1.9c-0.5,0-0.8,0.4-0.8,0.8 c0,0,0,19.5,0,25.4c0,0.1-0.1,0.4-0.4,0.4c-2.6,0-5.1,0-7.7,0c-0.5,0-0.5-0.4-0.5-0.4V64.7c0-0.5-0.4-0.8-0.8-0.8h-1.9 c-0.5,0-0.8,0.4-0.8,0.8v28.2c0,0.5,0.4,0.8,0.8,0.8H333c0.1,0,0.2,0.1,0.2,0.1v5.4c0,0.5,0.4,0.8,0.8,0.8h1.9 c0.5,0,0.8-0.4,0.8-0.8V91.3z"></path> <path d="M384.8,63.9h-11.3c-0.6,0.1-1,0.7-1,1.3c0,1.2-1,19.3-1.1,21.5c0,0.7-0.1,1.3-0.4,2c-0.3,0.8-0.7,1.3-1.4,1.7 c-0.3,0.2-0.7,0.3-1,0.4c-0.4,0.1-0.7,0.3-0.7,0.7c0,0.4,0,1.6,0,1.8c0,0.5,0.4,0.8,0.9,0.8c0.6,0,1.1-0.1,1.7-0.2 c1-0.3,1.8-0.8,2.4-1.4c0.9-0.9,1.5-2.2,1.8-3.6c0.3-2.1,1.2-19.9,1.2-21.1c0-0.3,0.1-0.4,0.4-0.4c1.8,0,3.6,0,5.4,0 c0.2,0,0.4,0.1,0.4,0.4V93c0,0.5,0.4,0.8,0.8,0.8h1.9c0.5,0,0.8-0.4,0.8-0.8V64.7C385.6,64.2,385.2,63.9,384.8,63.9z"></path> </g> <g> <path d="M356.1,12.3h-1.4c-4.3,0-7.8,3.5-7.8,7.8v15.1c0,4.3,3.5,7.8,7.8,7.8h1.4c4.3,0,7.8-3.5,7.8-7.8V20.1 C363.9,15.8,360.4,12.3,356.1,12.3z M360.3,35.1c0,2.6-2.1,4.7-4.7,4.7h-0.4c-2.6,0-4.7-2.1-4.7-4.7V20.2c0-2.6,2.1-4.7,4.7-4.7 h0.4c2.6,0,4.7,2.1,4.7,4.7V35.1z"></path> <path d="M331.2,14.8h-0.7v-1.7c0-0.5-0.4-0.8-0.8-0.8h-1.9c-0.5,0-0.8,0.4-0.8,0.8v1.7h-0.7c-4.3,0-7.8,3.5-7.8,7.8V35 c0,4.3,3.5,7.8,7.8,7.8h0.7v1.7c0,0.5,0.4,0.8,0.8,0.8h1.9c0.5,0,0.8-0.4,0.8-0.8v-1.7h0.7c4.3,0,7.8-3.5,7.8-7.8V22.6 C339,18.3,335.5,14.8,331.2,14.8z M326.8,39.5c-2.6,0-4.7-2.1-4.7-4.7V22.7c0-2.6,2.1-4.7,4.7-4.7h0.2v21.5 C327,39.5,326.8,39.5,326.8,39.5z M335.4,34.9c0,2.6-2.1,4.7-4.7,4.7c0,0-0.2,0-0.2,0V18.1h0.2c2.6,0,4.7,2.1,4.7,4.7V34.9z"></path> <path d="M418.9,43.5c0,0,0-3.3,0-3.3c0-0.5-0.4-0.9-1-0.9h-1.4c-0.2,0-0.3-0.1-0.3-0.3c0-5.4,0-22.2,0-25.3 c0-0.8-0.4-1.1-1.1-1.1c-0.2,0-10.4,0-11.1,0c-0.6,0-0.9,0.4-1,1c-0.1,1.3-1.2,22-1.3,23.5c-0.2,1.4-0.5,2.1-1.4,2.2h-1 c-0.7,0-1,0.4-1,1c0,1.1,0,8,0,8c0,0.5,0.4,0.8,0.8,0.8h1.9c0.5,0,0.8-0.4,0.8-0.8v-5.4c0-0.2,0-0.2,0.2-0.2c4.2,0,8.5,0,12.7,0 c0.2,0,0.2,0,0.2,0.2v5.4c0,0.5,0.4,0.8,0.8,0.8h1.9c0.5,0,0.8-0.4,0.8-0.8V43.5z M412.7,39c0,0.2,0,0.3-0.3,0.3 c-2.5,0-7.6,0-7.7,0c0.2-0.3,0.5-2.2,0.6-3c0.1-1.4,1-17.5,1.1-19.9c0-0.2,0.1-0.3,0.3-0.3h5.6c0.2,0,0.3,0.1,0.3,0.3 C412.7,18.5,412.7,32.1,412.7,39z"></path> <path d="M389.4,12.7h-1.9c-0.5,0-0.8,0.4-0.8,0.8v11.4c0,0.2-0.1,0.3-0.3,0.3h-8.7c-0.2,0-0.3-0.1-0.3-0.3V13.5 c0-0.5-0.4-0.8-0.8-0.8h-1.9c-0.5,0-0.8,0.4-0.8,0.8v28.3c0,0.5,0.4,0.8,0.8,0.8h1.9c0.5,0,0.8-0.4,0.8-0.8v-13 c0-0.2,0.1-0.3,0.3-0.3h8.7c0.2,0,0.3,0.1,0.3,0.3v13c0,0.5,0.4,0.8,0.8,0.8h1.9c0.5,0,0.8-0.4,0.8-0.8V13.5 C390.2,13.1,389.9,12.7,389.4,12.7z"></path> </g> <g> <path d="M442.3,118h-18.5c-0.5,0-0.8,0.4-0.8,0.8v1.7c0,0.5,0.4,0.8,0.8,0.8h7.1c0.2,0,0.3,0.1,0.3,0.3v25.5 c0,0.5,0.4,0.8,0.8,0.8h1.9c0.5,0,0.8-0.4,0.8-0.8v-25.5c0-0.2,0.1-0.3,0.3-0.3h7.1c0.5,0,0.8-0.4,0.8-0.8v-1.7 C443.2,118.4,442.8,118,442.3,118z"></path> <path d="M335.5,146.9c-1.9-2.8-8.5-13.2-9.4-14.6c-0.1-0.1-0.1-0.2,0-0.3c0.9-1.3,6.6-9.5,9-12.9c0.3-0.4,0-1-0.5-1h-2 c-0.5,0-0.9,0-1.5,0.8c-2.3,3.2-7.1,10-8.8,12.4c-0.1,0.1-0.3,0.1-0.3-0.1v-12.3c0-0.5-0.4-0.8-0.8-0.8h-1.9 c-0.5,0-0.8,0.4-0.8,0.8v28.3c0,0.5,0.4,0.8,0.8,0.8h1.9c0.5,0,0.8-0.4,0.8-0.8v-14.1c0-0.2,0.2-0.2,0.3-0.1 c1.8,2.8,7.1,10.9,9.3,14.2c0.3,0.4,0.4,0.8,1.4,0.8h1.9c0.5,0,0.8-0.1,0.8-0.4C335.8,147.3,335.7,147.2,335.5,146.9z"></path> <path d="M491.2,117.9h-11.3c-0.6,0.1-1,0.7-1,1.3c0,1.2-1,19.3-1.1,21.5c0,0.7-0.1,1.3-0.4,2c-0.3,0.8-0.7,1.3-1.4,1.7 c-0.3,0.2-0.7,0.3-1,0.4c-0.4,0.1-0.7,0.3-0.7,0.7c0,0.4,0,1.6,0,1.8c0,0.5,0.4,0.8,0.9,0.8c0.6,0,1.1-0.1,1.7-0.2 c1-0.3,1.8-0.8,2.4-1.4c0.9-0.9,1.5-2.2,1.8-3.6c0.3-2.1,1.2-19.9,1.2-21.1c0-0.3,0.1-0.4,0.4-0.4c1.8,0,3.6,0,5.4,0 c0.2,0,0.4,0.1,0.4,0.4v25.4c0,0.5,0.4,0.8,0.8,0.8h1.9c0.5,0,0.8-0.4,0.8-0.8v-28.3C492,118.3,491.7,117.9,491.2,117.9z"></path> <path d="M356.5,118.8c-0.1-0.4-0.6-0.8-1.1-0.8h-4.5c-0.5,0-0.9,0.4-1.1,0.8c-1.1,3.6-4.1,13.7-4.8,15.9 c-0.1,0.3-0.1,0.6-0.1,0.9v11.6c0,0.5,0.4,0.8,0.8,0.8h1.9c0.5,0,0.8-0.4,0.8-0.8v-8.4c0-0.2,0.1-0.3,0.3-0.3h8.7 c0.2,0,0.3,0.1,0.3,0.3v8.4c0,0.5,0.4,0.8,0.8,0.8h1.9c0.5,0,0.8-0.4,0.8-0.8v-11.6c0-0.3,0-0.6-0.1-0.9 C360.6,132.5,357.5,122.4,356.5,118.8z M348.7,134.8l3.8-13.4c0.2-0.6,1-0.6,1.2,0l3.8,13.4c0.1,0.2-0.1,0.4-0.3,0.4H349 C348.8,135.1,348.7,135,348.7,134.8z"></path> <path d="M460.5,118.8c-0.1-0.4-0.6-0.8-1.1-0.8h-4.5c-0.5,0-0.9,0.4-1.1,0.8c-1.1,3.6-4.1,13.7-4.8,15.9 c-0.1,0.3-0.1,0.6-0.1,0.9v11.6c0,0.5,0.4,0.8,0.8,0.8h1.9c0.5,0,0.8-0.4,0.8-0.8v-8.4c0-0.2,0.1-0.3,0.3-0.3h8.7 c0.2,0,0.3,0.1,0.3,0.3v8.4c0,0.5,0.4,0.8,0.8,0.8h1.9c0.5,0,0.8-0.4,0.8-0.8v-11.6c0-0.3,0-0.6-0.1-0.9 C464.6,132.5,461.5,122.4,460.5,118.8z M452.7,134.8l3.8-13.4c0.2-0.6,1-0.6,1.2,0l3.8,13.4c0.1,0.2-0.1,0.4-0.3,0.4H453 C452.8,135.1,452.7,135,452.7,134.8z"></path> <path d="M512.5,118.8c-0.1-0.4-0.6-0.8-1.1-0.8h-4.5c-0.5,0-0.9,0.4-1.1,0.8c-1.1,3.6-4.1,13.7-4.8,15.9 c-0.1,0.3-0.1,0.6-0.1,0.9v11.6c0,0.5,0.4,0.8,0.8,0.8h1.9c0.5,0,0.8-0.4,0.8-0.8v-8.4c0-0.2,0.1-0.3,0.3-0.3h8.7 c0.2,0,0.3,0.1,0.3,0.3v8.4c0,0.5,0.4,0.8,0.8,0.8h1.9c0.5,0,0.8-0.4,0.8-0.8v-11.6c0-0.3,0-0.6-0.1-0.9 C516.6,132.5,513.5,122.4,512.5,118.8z M504.7,134.8l3.8-13.4c0.2-0.6,1-0.6,1.2,0l3.8,13.4c0.1,0.2-0.1,0.4-0.3,0.4H505 C504.8,135.1,504.7,135,504.7,134.8z"></path> <path d="M386.9,118.1h-0.3H385h-11h-1.6h-0.3c-0.5,0-0.8,0.4-0.8,0.8v28.2c0,0.5,0.4,0.8,0.8,0.8h1.9c0.5,0,0.8-0.4,0.8-0.8 v-25.5c0-0.2,0.1-0.3,0.3-0.3h8.7c0.2,0,0.3,0.1,0.3,0.3v25.5c0,0.5,0.4,0.8,0.8,0.8h1.9c0.5,0,0.8-0.4,0.8-0.8V119 C387.7,118.5,387.3,118.1,386.9,118.1z"></path> <path d="M413.9,118h-1.8c-0.5,0-1.1,0.4-1.3,0.8c-6,14.8-8,19.7-8.7,21.3c-0.1,0.2-0.3,0.1-0.3-0.1v-21.2c0-0.5-0.4-0.8-0.8-0.8 h-1.9c-0.5,0-0.8,0.4-0.8,0.8v28.3c0,0.5,0.4,0.8,0.8,0.8h1.9c0.4,0,0.8-0.2,0.9-0.6c4.5-10.5,8-18.7,9-21.1 c0.1-0.2,0.3-0.1,0.3,0.1v20.8c0,0.5,0.4,0.8,0.8,0.8h1.9c0.5,0,0.8-0.4,0.8-0.8v-28.3C414.8,118.4,414.4,118,413.9,118z"></path> </g> <g> <path d="M335.5,168.2h-2.3c-0.5,0-0.6,0.3-0.8,0.8c-1,2.3-3.1,7.2-4.7,10.9c-0.1,0.2-0.5,0.2-0.6,0c-1.6-3.7-3.7-8.7-4.7-10.9 c-0.2-0.5-0.4-0.8-0.8-0.8h-2.3c-0.5,0-0.8,0.4-0.8,0.8v28.2c0,0.5,0.4,0.8,0.8,0.8h1.7c0.5,0,0.8-0.4,0.8-0.8v-20.8 c0-0.2,0.2-0.2,0.3-0.1c1.3,3.2,2.7,6.7,3.4,8.5c0.1,0.3,0.5,0.5,0.8,0.5h1.9c0.4,0,0.7-0.2,0.8-0.5c0.7-1.7,2.1-5.3,3.4-8.5 c0.1-0.2,0.3-0.1,0.3,0.1v20.8c0,0.5,0.4,0.8,0.8,0.8h1.7c0.5,0,0.8-0.4,0.8-0.8V169C336.3,168.6,336,168.2,335.5,168.2z"></path> <path d="M391.1,168.1h-18.5c-0.5,0-0.8,0.4-0.8,0.8v1.7c0,0.5,0.4,0.8,0.8,0.8h7.1c0.2,0,0.3,0.1,0.3,0.3v25.5 c0,0.5,0.4,0.8,0.8,0.8h1.9c0.5,0,0.8-0.4,0.8-0.8v-25.5c0-0.2,0.1-0.3,0.3-0.3h7.1c0.5,0,0.8-0.4,0.8-0.8v-1.7 C391.9,168.5,391.5,168.1,391.1,168.1z"></path> <path d="M357.5,170.1h-0.7v-1.7c0-0.5-0.4-0.8-0.8-0.8h-1.9c-0.5,0-0.8,0.4-0.8,0.8v1.7h-0.7c-4.3,0-7.8,3.5-7.8,7.8v12.4 c0,4.3,3.5,7.8,7.8,7.8h0.7v1.7c0,0.5,0.4,0.8,0.8,0.8h1.9c0.5,0,0.8-0.4,0.8-0.8v-1.7h0.7c4.3,0,7.8-3.5,7.8-7.8v-12.4 C365.3,173.6,361.8,170.1,357.5,170.1z M353.1,194.8c-2.6,0-4.7-2.1-4.7-4.7V178c0-2.6,2.1-4.7,4.7-4.7h0.2v21.5 C353.3,194.8,353.1,194.8,353.1,194.8z M361.7,190.2c0,2.6-2.1,4.7-4.7,4.7c0,0-0.2,0-0.2,0v-21.5h0.2c2.6,0,4.7,2.1,4.7,4.7 V190.2z"></path> <path d="M413.9,168.1h-1.8c-0.5,0-1.1,0.4-1.3,0.8c-6,14.8-8,19.7-8.7,21.3c-0.1,0.2-0.3,0.1-0.3-0.1v-21.2 c0-0.5-0.4-0.8-0.8-0.8h-1.9c-0.5,0-0.8,0.4-0.8,0.8v28.3c0,0.5,0.4,0.8,0.8,0.8h1.9c0.4,0,0.8-0.2,0.9-0.6 c4.5-10.5,8-18.7,9-21.1c0.1-0.2,0.3-0.1,0.3,0.1v20.8c0,0.5,0.4,0.8,0.8,0.8h1.9c0.5,0,0.8-0.4,0.8-0.8v-28.3 C414.8,168.5,414.4,168.1,413.9,168.1z"></path> </g> <g> <linearGradient id="SVGID_1_" gradientUnits="userSpaceOnUse" x1="112.0734" y1="98.3029" x2="45.7536" y2="164.6227"> <stop offset="0" style="stop-color:#4674B7"></stop> <stop offset="1" style="stop-color:#292878"></stop> </linearGradient> <path class="st0" d="M104.1,93.3c0-3.2-2-5.8-4.8-6.9c-1.5-0.6-3.3-0.7-5.1-0.1l-41.1,15.5c0,0,14.8-4.2,19.1-3.6 c4.1,0.5,2.3,6.7,2.3,6.7L61.2,180c0,0,24.5-3.2,28.4-3.7L104.1,93.3z"></path> <linearGradient id="SVGID_2_" gradientUnits="userSpaceOnUse" x1="78.6539" y1="165.4213" x2="158.4146" y2="85.6606"> <stop offset="0" style="stop-color:#4674B7"></stop> <stop offset="1" style="stop-color:#292878"></stop> </linearGradient> <path class="st1" d="M118.2,75.9c2.9,1.7,30.9,22.7,19.9,51.1c0,0-4.5,19.9-18.9,32.5c-9.1,7.9-29.7,16.7-29.7,16.7 c38.3-5.9,69.1-29,74.6-68.6c0,0,0.7-25.6-21.5-33.7C126,67.9,118.2,75.9,118.2,75.9z"></path> <linearGradient id="SVGID_3_" gradientUnits="userSpaceOnUse" x1="134.2348" y1="90.4377" x2="154.9511" y2="54.5559"> <stop offset="0" style="stop-color:#6D91CA"></stop> <stop offset="0.9959" style="stop-color:#2E4999"></stop> </linearGradient> <path class="st2" d="M164.1,107.7C171,57.2,125,37.5,125,37.5l-6.8,38.4c0,0,9-7.6,24.4-1.4C163.2,82.9,164.1,107.7,164.1,107.7z "></path> <linearGradient id="SVGID_4_" gradientUnits="userSpaceOnUse" x1="62.8606" y1="98.1349" x2="62.8606" y2="114.0517"> <stop offset="0" style="stop-color:#6D91CA"></stop> <stop offset="0.9959" style="stop-color:#2E4999"></stop> </linearGradient> <path class="st3" d="M50.9,114.1l23.5-9.2c0,0,1.8-6.1-2.3-6.7c-4.3-0.6-19.1,3.7-19.1,3.7L50.9,114.1z"></path> <g> <linearGradient id="SVGID_5_" gradientUnits="userSpaceOnUse" x1="108.8829" y1="179.7081" x2="118.7717" y2="123.6259"> <stop offset="0" style="stop-color:#6D91CA"></stop> <stop offset="0.9959" style="stop-color:#2E4999"></stop> </linearGradient> <path class="st4" d="M89.5,176.3l2.2-12.4l0,0c0,0,33.2-2.8,46.4-36.9c0,0-5,22.1-18.3,32.5C105.2,171,89.5,176.3,89.5,176.3z"></path> </g> <linearGradient id="SVGID_6_" gradientUnits="userSpaceOnUse" x1="20.9393" y1="55.6343" x2="20.9393" y2="71.5227"> <stop offset="0" style="stop-color:#6D91CA"></stop> <stop offset="0.9959" style="stop-color:#2E4999"></stop> </linearGradient> <path class="st5" d="M9,71.5l23.5-9.2c0,0,1.8-6.1-2.3-6.7c-4.3-0.6-19.1,3.6-19.1,3.6L9,71.5z"></path> <linearGradient id="SVGID_7_" gradientUnits="userSpaceOnUse" x1="80.1456" y1="65.9417" x2="-15.15" y2="161.2373"> <stop offset="0" style="stop-color:#4674B7"></stop> <stop offset="1" style="stop-color:#292878"></stop> </linearGradient> <path class="st6" d="M62,50.8c0-3.2-2-5.8-4.8-6.9c-1.5-0.6-3.3-0.7-5.1-0.1L11.1,59.4c0,0,14.8-4.2,19.1-3.6 c4.1,0.5,2.3,6.7,2.3,6.7l-22,124.4c0,0,24.6-3.2,28.4-3.8L62,50.8z"></path> </g> </g> <rect x="-75.7" y="-81.8" class="st7" width="677.9" height="376.6"></rect> </g> </svg> 