<?xml version="1.0" encoding="UTF-8"?> <!-- Generator: Adobe Illustrator 23.0.1, SVG Export Plug-In . SVG Version: 6.00 Build 0) --> <svg xmlns="http://www.w3.org/2000/svg" xmlns:xlink="http://www.w3.org/1999/xlink" id="Слой_1" x="0px" y="0px" viewBox="0 0 600 227" style="enable-background:new 0 0 600 227;" xml:space="preserve"> <style type="text/css"> .st0{fill:#1272B9;} .st1{fill:#1172B9;} </style> <path class="st0" d="M545.6,167.9c-4.8,1-9.7,1.9-14.5,2.9c-7,1.4-14,2.9-21,4.4c-0.8,0.2-1,0.1-0.8-0.8c1-5.2,2.1-10.4,3-15.7 c0.2-1.1,0.7-1,1.5-0.7c10.2,3.1,20.4,6.1,30.6,9.1c0.4,0.1,0.8,0.3,1.2,0.2C545.6,167.6,545.6,167.8,545.6,167.9z"></path> <path class="st0" d="M139.2,183.3c0.9-1.2,1.4-2.5,1.9-3.7c1.6-3.5,2.7-7.1,4.4-10.5c1.1-2.2,2.4-4.2,4.4-5.7c1.3-1,2.7-1.5,4.4-1.5 c0.5,0,1,0,1.5,0c114.5,0,229,0,343.6,0c0.3,0,0.5,0,0.8,0c0.9-0.1,1.1,0.3,0.9,1.1c-0.4,2.4-0.9,4.8-1.3,7.2 c-0.1,0.7-0.4,1.1-1.2,1c-0.3,0-0.7,0-1,0c-113.5,0-227.1,0-340.6,0c-1.5,0-2.3,0.5-2.9,1.8c-1.6,3.3-2.8,6.7-4.2,10 c-1,2.4-2.1,4.7-3.7,6.7c-4.2,5.5-11.1,4.2-14.4-0.4c-2.3-3.1-3.4-6.7-4.2-10.4c-1.6-7.4-2.5-15-3.6-22.4 c-0.9-5.7-1.7-11.4-2.5-17.2c-1.1-7.9-2.1-15.8-3.1-23.7c-0.9-7-1.9-13.9-3-20.9c-1.1-7.2-2.2-14.3-3.7-21.4c-1-5-2.2-10.1-4-14.9 c-0.4-1-0.8-1.9-1.4-2.7c-0.3-0.5-0.7-0.5-1.2-0.1c-0.7,0.6-1.2,1.4-1.6,2.1c-2.4,4.4-3.8,9.1-5.1,13.9c-3.9,13.8-6.8,27.7-9.7,41.7 c-2.8,13.6-5.5,27.2-8.3,40.8c-1,5.1-3.1,9.7-7,13.2c-2.9,2.6-6.4,3.7-10.2,3.9c-2.6,0.1-5.3,0-7.9,0c-0.7,0-1-0.1-0.8-0.9 c0.5-2.4,0.9-4.8,1.3-7.3c0.1-0.9,0.5-1.1,1.3-1c1.7,0.1,3.5,0,5.3,0c3.1,0.1,5.3-1.3,6.8-3.9c1.6-2.8,2.2-5.9,2.8-9 c3.7-18.2,7.2-36.5,11.2-54.6c2.2-9.8,4.4-19.7,7.5-29.3c1.5-4.7,3.2-9.3,5.9-13.4c1.9-2.9,4.2-5.2,7.8-6c3.1-0.6,5.7,0.2,7.9,2.5 c2.7,2.9,4,6.5,5.2,10.2c2.3,7.1,3.7,14.5,5,21.9c1.5,8.8,2.8,17.6,4,26.4c1.4,9.7,2.6,19.5,3.9,29.2c1,7,2,14,3,21 c0.9,6.1,1.7,12.1,2.9,18.2c0.4,2,0.8,4,1.6,5.9C138.1,181.8,138.4,182.6,139.2,183.3z"></path> <path class="st1" d="M237.4,102.6c-0.7,0.2-0.8,0.8-0.9,1.1c-7.1,15.5-14.1,31.1-21.2,46.6c-0.4,1-0.9,1.4-2.1,1.4 c-5.8-0.1-11.6,0-17.4,0c-0.9,0-1.1-0.2-1.2-1.1c-0.2-6.9-0.5-13.7-0.8-20.6c-0.3-8.7-0.7-17.4-1-26.1c0-0.1,0-0.3,0-0.4 c-0.1-0.3,0.1-0.9-0.4-0.9c-0.5,0-0.4,0.5-0.5,0.9c-2.7,13.1-5.3,26.3-8,39.4c-0.5,2.5-1.1,5.1-1.5,7.6c-0.2,0.8-0.5,1.2-1.4,1.2 c-6-0.1-12-0.1-17.9,0c-1.1,0-1.3-0.4-1.1-1.3c2.9-14.1,5.7-28.2,8.6-42.3c1.2-6,2.4-11.9,3.6-17.9c0.2-0.8,0.4-1.1,1.3-1.1 c11.1,0,22.2,0,33.3,0c0.9,0,1.1,0.2,1.2,1.1c0.1,5.2,0.3,10.4,0.5,15.6c0.2,5.5,0.4,10.9,0.6,16.4c0,0.3-0.2,0.9,0.3,1 c0.5,0.1,0.5-0.5,0.6-0.8c4.6-10.6,9.2-21.2,13.7-31.9c0.4-1,0.9-1.3,2-1.3c10.9,0,21.8,0,32.7,0c1.1,0,1.3,0.3,1.1,1.4 c-3.2,15.8-6.4,31.7-9.6,47.6c-0.8,4.2-1.7,8.4-2.6,12.6c-0.1,0.7-0.4,1.1-1.2,1.1c-6.4,0-12.8-0.1-19.2,0c-1.1,0-1.2-0.4-1-1.3 c3.2-15.7,6.4-31.4,9.6-47.2C237.4,103.2,237.4,103,237.4,102.6z"></path> <path class="st1" d="M308.8,85.1c3.6,0,7.3,0,10.9,0c0.9,0,1.1,0.2,0.9,1.2c-0.5,2.4-0.9,4.8-1.4,7.1c-0.2,0.8,0,1.1,0.9,1 c3.6-0.1,7.2,0,10.8,0.8c5.9,1.3,10.9,3.9,13.4,9.9c1.3,3.1,1.6,6.4,1.4,9.7c-0.8,10.8-5.7,19.1-15.4,24.4 c-4.5,2.4-9.4,3.5-14.5,3.7c-1.8,0.1-3.6,0.1-5.4,0c-1.2-0.1-1.4,0.4-1.6,1.4c-0.5,2.6-1,5.2-1.5,7.8c-0.1,0.7-0.4,0.9-1.1,0.9 c-7.3,0-14.7,0-22,0c-1.1,0-0.9-0.6-0.8-1.2c0.5-2.6,1-5.1,1.5-7.6c0.2-1,0-1.3-1-1.2c-4.3,0.1-8.5,0-12.7-1.3 c-8.6-2.6-13.4-9.9-12.8-18.9c0.9-13.3,10.7-24.8,25.2-27.5c3.3-0.6,6.7-0.9,10-0.7c1.2,0.1,1.5-0.4,1.7-1.4 c0.4-2.3,0.9-4.5,1.3-6.8c0.1-0.9,0.5-1.2,1.4-1.2C301.6,85.1,305.2,85.1,308.8,85.1z M291.5,108.7c-1.9,0-3.6,0.6-5.1,1.8 c-3.7,2.8-5.3,6.6-5.3,11.1c0,4.2,2.8,7,6.7,7.1c1,0,1.4-0.3,1.6-1.2c1.1-5.7,2.3-11.4,3.4-17.1 C293.1,108.7,293.1,108.7,291.5,108.7z M322.8,116.8c0-5.5-2.5-8.2-6.9-8.1c-0.7,0-1.1,0.2-1.2,1c-1.2,6-2.4,11.9-3.6,17.9 c-0.2,0.9,0.1,1.1,1,1.1c2.2-0.1,4.3-0.7,6-2.2C321.2,123.7,322.6,120.1,322.8,116.8z"></path> <path class="st1" d="M460.7,117c-0.6,0.4-0.9,1.1-1.3,1.7c-7,10.7-14.1,21.4-21.1,32.1c-0.5,0.7-1,1-1.8,1c-8.5,0-17,0-25.5,0 c-1.2,0-1.3-0.4-1.1-1.4c3.8-18.5,7.5-36.9,11.3-55.4c0.3-1.6,0.7-3.2,1-4.9c0.1-0.7,0.4-0.9,1.1-0.9c7.3,0,14.7,0,22,0 c0.8,0,1,0.1,0.9,1c-2.3,11-4.5,22-6.7,33c-0.1,0.5-0.1,1-0.2,1.6c0.7-0.1,0.8-0.7,1.1-1.1c7.2-11.1,14.4-22.3,21.6-33.4 c0.5-0.8,1-1.1,1.9-1.1c8.5,0,17,0,25.5,0c0.9,0,1.3,0.1,1,1.2c-2.1,10-4.1,20-6.2,30c-2.1,10.1-4.1,20.3-6.1,30.4 c-0.2,0.8-0.5,0.9-1.2,0.9c-7.3,0-14.7,0-22,0c-0.9,0-0.9-0.2-0.8-1c2.3-10.9,4.5-21.7,6.7-32.6C460.9,117.8,461,117.4,460.7,117z"></path> <path class="st1" d="M384,89.3c10.6,0,21.2,0,31.8,0c0.9,0,1.3,0,1.1,1.2c-1.2,5.5-2.3,11-3.4,16.5c-0.2,0.8-0.6,0.8-1.3,0.8 c-6.2,0-12.5,0-18.7,0c-0.9,0-1.4,0.2-1.6,1.3c-2.8,13.9-5.6,27.8-8.4,41.6c-0.2,0.9-0.6,1.2-1.5,1.2c-7.1,0-14.3,0-21.4,0 c-1.1,0-1.3-0.3-1.1-1.3c2.8-13.8,5.6-27.7,8.5-41.5c0.3-1.3-0.2-1.3-1.1-1.3c-6.1,0-12.3,0-18.4,0c-1,0-1.3-0.1-1.1-1.3 c1.2-5.4,2.3-10.7,3.3-16.1c0.2-1,0.6-1.2,1.5-1.2c4.5,0,9,0,13.4,0C371.7,89.3,377.8,89.3,384,89.3z"></path> </svg> 