<?xml version="1.0" encoding="UTF-8"?> <svg xmlns="http://www.w3.org/2000/svg" viewBox="0 0 841.52 333.88"> <defs> <style>.cls-1,.cls-3{fill:#2c3032;}.cls-1{stroke:#2c3032;stroke-linecap:round;stroke-linejoin:round;stroke-width:8.5px;}.cls-2{fill:#19ffac;opacity:0.9;}</style> </defs> <title>Ресурс 10</title> <g id="Слой_2" data-name="Слой 2"> <g id="Layer_1" data-name="Layer 1"> <path class="cls-1" d="M196.3,258.46a81,81,0,0,1-6.21,28.85,68.67,68.67,0,0,1-15.16,22.42,67.51,67.51,0,0,1-22.53,14.53,76.43,76.43,0,0,1-28.53,5.16,75.79,75.79,0,0,1-29.69-5.67A69.65,69.65,0,0,1,70.91,308a70.63,70.63,0,0,1-15.16-23.86,81.78,81.78,0,0,1-5.37-30A80.48,80.48,0,0,1,56,223.86a73.22,73.22,0,0,1,15.37-24A69.77,69.77,0,0,1,94.6,184.12a74.69,74.69,0,0,1,29.27-5.68,78.89,78.89,0,0,1,24.63,3.79,73.28,73.28,0,0,1,20.85,10.64A66.64,66.64,0,0,1,185,209.19,57.14,57.14,0,0,1,193.78,230h-6.95a50.55,50.55,0,0,0-8.23-18.11,62.11,62.11,0,0,0-14.23-14.21,67.41,67.41,0,0,0-18.78-9.37A70.79,70.79,0,0,0,123.76,185a67.47,67.47,0,0,0-26.57,5.17A63.12,63.12,0,0,0,76.1,204.48a66.28,66.28,0,0,0-13.92,21.93,79.35,79.35,0,0,0-.11,55.47A65.51,65.51,0,0,0,75.89,303.6,61.71,61.71,0,0,0,97,317.84a69.42,69.42,0,0,0,26.78,5.05,70.37,70.37,0,0,0,24.68-4.22,62.17,62.17,0,0,0,19.93-11.83,61.12,61.12,0,0,0,13.92-18.29A66.27,66.27,0,0,0,188.93,265h-72v-6.53Z"></path> <path class="cls-1" d="M327.07,269.83v2.95H220.73a56.44,56.44,0,0,0,4.32,20.11,49.65,49.65,0,0,0,10.64,15.9,48.87,48.87,0,0,0,15.81,10.53,50.38,50.38,0,0,0,19.6,3.79q15.18,0,26.77-7.37A51.46,51.46,0,0,0,316.2,295.1h7.17q-8,17.06-21.39,25.8t-30.88,8.73a55.86,55.86,0,0,1-52.79-35.69A62.85,62.85,0,0,1,214,270.46a62,62,0,0,1,4.32-23.37,56.19,56.19,0,0,1,52.85-35.59A55,55,0,0,1,293.63,216a55.57,55.57,0,0,1,17.72,12.32A54.79,54.79,0,0,1,323,246.77,63.45,63.45,0,0,1,327.07,269.83Zm-56-51.8a51.26,51.26,0,0,0-19.26,3.58,46.82,46.82,0,0,0-15.59,10.11,52.1,52.1,0,0,0-15.47,34.53h99.6a53.42,53.42,0,0,0-4.74-19.58A51.89,51.89,0,0,0,305,231.4a45.9,45.9,0,0,0-15.17-9.9A49.82,49.82,0,0,0,271.05,218Z"></path> <path class="cls-1" d="M404.77,211.29a46.08,46.08,0,0,1,18.53,3.58,40.35,40.35,0,0,1,14,10,45.19,45.19,0,0,1,8.95,15.38,59.6,59.6,0,0,1,3.16,19.9v67.38h-6.74V261.41q0-20.43-10.32-32T403.5,217.82A40.52,40.52,0,0,0,387,221.3a43.87,43.87,0,0,0-13.79,9.47,46.5,46.5,0,0,0-9.37,13.79,40.35,40.35,0,0,0-3.48,16.64v66.33h-6.74V213.68h5.48l1.05,26.46A50.44,50.44,0,0,1,378,219.4,46.77,46.77,0,0,1,404.77,211.29Z"></path> <path class="cls-1" d="M588,269.83v2.95H481.62a56.44,56.44,0,0,0,4.32,20.11,49.68,49.68,0,0,0,10.65,15.9,48.72,48.72,0,0,0,15.8,10.53,50.42,50.42,0,0,0,19.6,3.79q15.18,0,26.77-7.37A51.56,51.56,0,0,0,577.1,295.1h7.17q-8,17.06-21.4,25.8T532,329.63a55.9,55.9,0,0,1-52.8-35.69,62.85,62.85,0,0,1-4.32-23.48,61.86,61.86,0,0,1,4.33-23.37,56.17,56.17,0,0,1,52.84-35.59A54.88,54.88,0,0,1,554.52,216a55.46,55.46,0,0,1,17.72,12.32,54.79,54.79,0,0,1,11.6,18.42A63.23,63.23,0,0,1,588,269.83ZM532,218a51.31,51.31,0,0,0-19.27,3.58,46.68,46.68,0,0,0-15.58,10.11,52,52,0,0,0-15.48,34.53h99.6a53.42,53.42,0,0,0-4.74-19.58,51.71,51.71,0,0,0-10.63-15.27,45.86,45.86,0,0,0-15.16-9.9A49.86,49.86,0,0,0,532,218Z"></path> <path class="cls-1" d="M647.13,329.63q-19.17,0-30.53-8.84T604,296.36h6.53q1.47,12.86,11,19.8t25.8,6.95q16.42,0,26.22-6.95a22,22,0,0,0,9.79-19q0-7.38-3.16-12a22.83,22.83,0,0,0-8.42-7.37,49,49,0,0,0-12-4.21q-6.74-1.47-13.68-2.74-7.38-1.26-14.53-2.84a49.27,49.27,0,0,1-12.85-4.63,25.21,25.21,0,0,1-9.16-8.21q-3.46-5.16-3.47-13.58A25.89,25.89,0,0,1,609,229.3a28.43,28.43,0,0,1,8.31-9.59,41,41,0,0,1,12.74-6.21,57.19,57.19,0,0,1,16.43-2.21q18.32,0,29.06,8.64t11.58,23.37H680.4q-.84-12-9.76-18.74t-24.46-6.74q-15.1,0-24.24,6.53t-9.13,17.27q0,6.31,2.84,10.31a20.38,20.38,0,0,0,7.68,6.43A44.45,44.45,0,0,0,634.49,262q6.33,1.26,13.27,2.53,7.37,1.26,15,2.95a49.24,49.24,0,0,1,13.69,5.15,28.46,28.46,0,0,1,9.89,9.27q3.8,5.79,3.79,15.27a28.34,28.34,0,0,1-11.79,23.58,42.86,42.86,0,0,1-13.58,6.53A62.52,62.52,0,0,1,647.13,329.63Z"></path> <path class="cls-1" d="M715.77,176.76h9.9v11.79h-9.9Zm1.48,37.06H724V327.53h-6.74Z"></path> <path class="cls-1" d="M794.31,329.63q-19.15,0-30.53-8.84t-12.63-24.43h6.53q1.47,12.86,11.05,19.8t25.8,6.95q16.41,0,26.21-6.95a22,22,0,0,0,9.79-19q0-7.38-3.16-12a22.67,22.67,0,0,0-8.42-7.37,48.81,48.81,0,0,0-12-4.21q-6.75-1.47-13.69-2.74-7.37-1.26-14.53-2.84a49.33,49.33,0,0,1-12.84-4.63,25.13,25.13,0,0,1-9.16-8.21q-3.48-5.16-3.48-13.58a25.89,25.89,0,0,1,3-12.32,28.57,28.57,0,0,1,8.32-9.59,40.89,40.89,0,0,1,12.74-6.21,57.17,57.17,0,0,1,16.42-2.21q18.33,0,29.06,8.64t11.58,23.37h-6.74q-.83-12-9.76-18.74t-24.45-6.74q-15.12,0-24.25,6.53T760,241.62a17.41,17.41,0,0,0,2.84,10.31,20.49,20.49,0,0,0,7.69,6.43A44.45,44.45,0,0,0,781.68,262Q788,263.3,795,264.57q7.37,1.26,14.95,2.95a49.06,49.06,0,0,1,13.68,5.15,28.58,28.58,0,0,1,9.9,9.27q3.79,5.79,3.79,15.27a28.34,28.34,0,0,1-11.79,23.58,43,43,0,0,1-13.58,6.53A62.59,62.59,0,0,1,794.31,329.63Z"></path> <path class="cls-2" d="M53.86,6.35A49.16,49.16,0,0,1,72.39,9.76a46.37,46.37,0,0,1,14.74,9.42,42.39,42.39,0,0,1,9.8,14.36,46.52,46.52,0,0,1,3.51,18.22A46.47,46.47,0,0,1,96.93,70a43.36,43.36,0,0,1-9.8,14.45,45.26,45.26,0,0,1-14.74,9.51,49.16,49.16,0,0,1-18.53,3.41H35V132H.28V6.35ZM49.73,67q6.83,0,11-4.23a15.14,15.14,0,0,0,4.13-11,15.22,15.22,0,0,0-4.13-11,14.5,14.5,0,0,0-11-4.32H35V67Z"></path> <path class="cls-2" d="M174,32.25a37.46,37.46,0,0,1,15.19,3,31.82,31.82,0,0,1,11.42,8.3,38.5,38.5,0,0,1,7.29,13,52.86,52.86,0,0,1,2.6,17.13V132H177V77.38q0-16.9-12.59-16.9-7.56,0-12,5.12t-4.4,14.66V132H114.64V0h33.45V41.54A41.51,41.51,0,0,1,160,34.75,39.49,39.49,0,0,1,174,32.25Z"></path> <path class="cls-2" d="M328.08,34.94l-40.64,92.79a135.68,135.68,0,0,1-9.8,18.88,52.17,52.17,0,0,1-10.79,12.5,37.57,37.57,0,0,1-13,6.92,57.65,57.65,0,0,1-16.55,2.16h-11.5V139.42h9.17a38.14,38.14,0,0,0,8.09-.72,14.71,14.71,0,0,0,5.57-2.43,15.55,15.55,0,0,0,4.14-4.77,44.78,44.78,0,0,0,3.42-7.55l-40.1-89h36.32l20.5,53.41,19.24-53.41Z"></path> <path class="cls-2" d="M371.78,135.28A58.58,58.58,0,0,1,354,132.76a38.85,38.85,0,0,1-13.39-7.1A32,32,0,0,1,332,114.6,33.21,33.21,0,0,1,329,100.22h32.19q0,5.2,3.23,7.82a12.22,12.22,0,0,0,7.92,2.61,11.85,11.85,0,0,0,6.65-1.89,6.33,6.33,0,0,0,2.88-5.67q0-4.12-4.86-5.84a78.42,78.42,0,0,0-11.69-3q-5.57-.9-11.78-2.43A37.61,37.61,0,0,1,342.11,87a26.3,26.3,0,0,1-8.54-8.9q-3.33-5.58-3.33-14.39a28.73,28.73,0,0,1,3-13.21,29.73,29.73,0,0,1,8.36-10.07,38.45,38.45,0,0,1,13-6.48,60.47,60.47,0,0,1,17-2.24A57.35,57.35,0,0,1,388.5,34a37.94,37.94,0,0,1,12.86,6.66,30.4,30.4,0,0,1,8.27,10.43,32.26,32.26,0,0,1,3.14,13.48H381.49q0-4.66-2.79-6.92a11.54,11.54,0,0,0-7.46-2.25,10.43,10.43,0,0,0-6.57,1.89,6.33,6.33,0,0,0-2.42,5.3c0,2.76,1.64,4.65,4.94,5.67A104.46,104.46,0,0,0,379,71.09q5.75,1.08,12,2.51a40,40,0,0,1,11.59,4.59,25.38,25.38,0,0,1,8.73,8.72q3.41,5.58,3.41,14.75a30.77,30.77,0,0,1-3.05,13.75A30.27,30.27,0,0,1,403,126a41.8,41.8,0,0,1-13.57,6.83A59.9,59.9,0,0,1,371.78,135.28Z"></path> <path class="cls-3" d="M500.68,103.24v29.31h-23q-16.37,0-25.44-9.17t-9.08-25.53V61.17H425.33V53.44L468.85,7h6.83V35.45h24.46V61.17H476.58V92.1q0,5.2,3,8.18c2,2,4.7,3,8.18,3Z"></path> <path class="cls-3" d="M615.4,83.1q0,2.16-.18,4.32t-.54,4.5H542.57q1.62,8.44,6.75,12.67t13,4.23a22.1,22.1,0,0,0,10.52-2.43,17.55,17.55,0,0,0,7.1-6.74h33.27a50.73,50.73,0,0,1-7.37,15,49.12,49.12,0,0,1-11.42,11.42,50.91,50.91,0,0,1-14.74,7.19,58.68,58.68,0,0,1-17.36,2.52,54.54,54.54,0,0,1-21-4A52.05,52.05,0,0,1,524.68,121a49.18,49.18,0,0,1-11.06-16.37A52.65,52.65,0,0,1,509.67,84a53.3,53.3,0,0,1,3.95-20.67,48.75,48.75,0,0,1,27.69-27.25,59.85,59.85,0,0,1,42.53.09A51.39,51.39,0,0,1,600.65,47a48,48,0,0,1,10.88,16.1A51.42,51.42,0,0,1,615.4,83.1Zm-53-24.63A19.66,19.66,0,0,0,550,62.25Q545.09,66,543.11,73.4h39.38Q577.81,58.48,562.35,58.47Z"></path> <path class="cls-3" d="M678.69,135.79a58.25,58.25,0,0,1-21.49-3.86,51.51,51.51,0,0,1-17-10.79,48.32,48.32,0,0,1-11.15-16.46,54,54,0,0,1-3.95-20.86,53.3,53.3,0,0,1,3.95-20.76,48.07,48.07,0,0,1,11.06-16.28,50,50,0,0,1,17-10.61,60.21,60.21,0,0,1,21.58-3.77,57.93,57.93,0,0,1,19.06,3.05,49.07,49.07,0,0,1,15.56,8.72,48.21,48.21,0,0,1,11.14,13.58,48.74,48.74,0,0,1,5.67,17.62H697.57a19,19,0,0,0-7.28-9.44,20,20,0,0,0-11.6-3.5q-9,0-14.56,5.93T658.55,84q0,9.54,5.67,15.65a20.19,20.19,0,0,0,26.34,2.25,20.11,20.11,0,0,0,7-10.34h32.91a54.5,54.5,0,0,1-5.84,18.07,47.46,47.46,0,0,1-11.24,13.93,51.66,51.66,0,0,1-15.65,9A54.76,54.76,0,0,1,678.69,135.79Z"></path> <path class="cls-3" d="M804.38,32.76a37.42,37.42,0,0,1,15.19,3A31.74,31.74,0,0,1,831,44a38.5,38.5,0,0,1,7.29,13,52.86,52.86,0,0,1,2.6,17.13v58.44H807.44V77.89q0-16.9-12.59-16.9-7.54,0-12,5.12t-4.4,14.66v51.78H745V.51h33.45V42.05a41.51,41.51,0,0,1,11.86-6.79A39.49,39.49,0,0,1,804.38,32.76Z"></path> <circle class="cls-3" cx="18.9" cy="312.14" r="18.9"></circle> </g> </g> </svg> 