<svg xmlns="http://www.w3.org/2000/svg" xml:space="preserve" width="2000px" height="615px" version="1.1" style="shape-rendering:geometricPrecision; text-rendering:geometricPrecision; image-rendering:optimizeQuality; fill-rule:evenodd; clip-rule:evenodd"
viewBox="0 0 1942 599"
 xmlns:xlink="http://www.w3.org/1999/xlink">
 <defs>
  <style type="text/css">
   <![CDATA[
    .fil0 {fill:#006CB5;fill-rule:nonzero}
   ]]>
  </style>
 </defs>
 <g id="Слой_x0020_1">
  <metadata id="CorelCorpID_0Corel-Layer"/>
  <g id="_2513402823872">
   <path class="fil0" d="M947 424l7 -35 -17 0c-63,0 -87,-36 -87,-72 0,-53 43,-115 128,-115l14 0 8 -37 92 0 -7 37 15 0c34,0 88,8 88,72 0,57 -40,115 -123,115l-18 0 -7 35 -93 0zm113 -90c25,0 40,-28 40,-49 0,-16 -9,-28 -25,-28l-5 0 -16 77 6 0zm-80 -77c-25,0 -41,26 -41,49 0,14 8,28 25,28l5 0 16 -77 -5 0z"/>
   <polygon class="fil0" points="1586,182 1558,320 1648,182 1757,182 1708,424 1615,424 1642,288 1552,424 1444,424 1493,182 "/>
   <polygon class="fil0" points="1470,182 1456,253 1374,253 1339,424 1247,424 1281,253 1199,253 1214,182 "/>
   <polygon class="fil0" points="652,182 656,314 658,314 715,182 852,182 803,424 720,424 759,234 670,424 593,424 583,234 544,424 465,424 514,182 "/>
   <g>
    <path class="fil0" d="M7 473c8,0 17,0 25,0 7,-1 14,-2 19,-3 18,-6 23,-14 27,-32 21,-97 39,-195 60,-293 10,-44 17,-78 26,-102 5,-13 11,-23 17,-30 15,-17 39,-17 54,0 16,17 25,50 35,91 28,133 56,267 84,401 3,13 6,24 9,34 4,12 6,17 12,17 1,0 2,-1 3,-2 4,-4 9,-19 14,-34 3,-9 5,-18 7,-22 12,-26 40,-25 66,-25l1302 0 -7 35 -1283 0c-38,0 -41,2 -53,38 -5,13 -10,27 -19,38 -7,8 -16,15 -30,15 -43,-1 -52,-55 -59,-86 -27,-127 -53,-253 -79,-380 -5,-19 -9,-37 -14,-55 -5,-20 -9,-30 -16,-30 -7,0 -11,9 -15,30l-73 345c-4,21 -8,43 -22,61 -15,17 -37,29 -76,28 -2,0 -19,0 -21,0l7 -39z"/>
    <polygon class="fil0" points="1793,528 1805,456 1942,491 "/>
   </g>
  </g>
 </g>
</svg>
