<svg width="30" height="30" viewBox="0 0 30 30" fill="none" xmlns="http://www.w3.org/2000/svg">
<rect width="30" height="30" fill="#47B0E6"/>
<path d="M21.3002 8.71C20.9102 8.32 20.2802 8.32 19.8902 8.71L15.0002 13.59L10.1102 8.7C9.72022 8.31 9.09021 8.31 8.70021 8.7C8.31021 9.09 8.31021 9.72 8.70021 10.11L13.5902 15L8.70021 19.89C8.31021 20.28 8.31021 20.91 8.70021 21.3C9.09021 21.69 9.72022 21.69 10.1102 21.3L15.0002 16.41L19.8902 21.3C20.2802 21.69 20.9102 21.69 21.3002 21.3C21.6902 20.91 21.6902 20.28 21.3002 19.89L16.4102 15L21.3002 10.11C21.6802 9.73 21.6802 9.09 21.3002 8.71V8.71Z" fill="white"/>
</svg>
